/* XPM */
static char *dd6271d3bcaf44e1a80d56302de7d2f7X9JaDTxccvjStOuH[] = {
/* columns rows colors chars-per-pixel */
"64 64 55 1 ",
"  c black",
". c #060606",
"X c #090909",
"o c #0E0E0E",
"O c #111111",
"+ c gray8",
"@ c #191919",
"# c gray11",
"$ c gray13",
"% c #252525",
"& c #282828",
"* c gray18",
"= c gray19",
"- c #353535",
"; c #393939",
": c #3E3E3E",
"> c gray25",
", c #444444",
"< c #4B4B4B",
"1 c gray31",
"2 c #515151",
"3 c gray34",
"4 c #5A5A5A",
"5 c #5F5F5F",
"6 c #626262",
"7 c #676767",
"8 c #686868",
"9 c gray43",
"0 c #717171",
"q c gray46",
"w c gray48",
"e c gray50",
"r c #808080",
"t c #868686",
"y c #898989",
"u c gray56",
"i c #929292",
"p c gray59",
"a c #9A9A9A",
"s c gray61",
"d c gray63",
"f c gray65",
"g c gray67",
"h c gray68",
"j c #B2B2B2",
"k c #B6B6B6",
"l c gray73",
"z c gray74",
"x c #C0C0C0",
"c c #C6C6C6",
"v c #C8C8C8",
"b c gray81",
"n c LightGray",
"m c gray83",
"M c #D7D7D7",
/* pixels */
"                .                                               ",
"X                             .O.                               ",
"@ +-88psvmcs0   $t885--&        . 7h2   $ldi97--  =-----188898, ",
"O 8nnnnnnnnbb1 6vmmmbnbvbnnnnnv   -mmx8+ 7mmmmnnmmmmmmmnnnnnnnq ",
"o tcccccccccczdcccxccvvvvvvvvvb   .mmmnce%dbbbnmnnnnnnnnbnnnnn8 ",
"o iccccccvvvvvcvvvvvvvcvvvvvvvl  . zvvcccckvcccvvvvvccvvcccbvb8 ",
"O uzlzzzzllzzzxzzxzxxxxxxccfi71 @ +vvcccccxccxxxxxxxxxcxxxxxxx> ",
"+ tlzllzlzzzlkklllllut52=@      $ &lllzzzzzzzzzzzzzxzzzzxzxzxx& ",
"@ tjjkkkkkkkjjjjjhjarr943:*&O   % 1zzlzzzzzzlllkllkllklllllkjko ",
"@ whhhghhhhhhhjghhhhhjjjjjjjjj+ $ 4jjhhhhjjhhhhjhhgghhhhhhhhhj. ",
"@ 6jkhjjjjhjhhghhhghggghgghhgf- # 3gghhhhhhhghhhhjjjhhhghggfff& ",
"O ,fffffffffgffgfggffgffgffffg5 O 2dfffggsfgggggggggghgggffggg5 ",
"X *fffddffdfdfddddddddfdsfdddfr X 5dffdf33fssdsddsffddddddsdsdr ",
"  %asssaassasaaaaaaaaaafasdfgdi . 7dsdw$ taasasssssddsdddfsdddd ",
"  %ddsssasssaaaaaaaasaaaassaddu   0sp1  $ddddddsdsddddsddddssdd ",
"  &appq071<<1<<1<11<13qq4<1:%%$   @%+   &11111111111>&&%%<16qea ",
"  X                                  .                          ",
"       ..oo.          o@Ooooo                   o               ",
"--$               26*  X         X--67qssy888,o @ $$     -------",
"bnnbnnzsssagnnx   snnp$  0sdfmmmmmmmmmMmmmmmmm- + rnd1X  *lnnbbn",
"nnbnbnbbnbbnbns . pvvcx94vbvvvvcvvvvvvvvvncbbn< # rbbbxeO oinnnb",
"xxxcxxxxxcxxxxq . ixxccxcxxxxxxcvccxcxcxvxxzcv< # wcxzxxk<  1kxx",
"zzzxxxxxxxxxcx6 o uzzxzzllzxcxxxccxxxxxxcxcxxx: $ wxxcxxxceX %fx",
"zzzzxzxxzzzxzz, O uxxzzllllzlllkkzllllllllzlzz* # qllzlllklg- .q",
">gkkkkkkkkkkll* + uklklzzllkkklkklkkklklkjkkkk& O yljjkjjklkk7. ",
" rkklklkkklzkk: O rkjjklkjkkkjhjjjkkjhjhjhhhhg+ # 0hhhhhklhhjhp%",
"9gffgfggfgffhh2 + 2gggkkkhhghggghgggfgggfggggg& % 2ggfhgfgfggffd",
"sssddsddsddsdf6 @ @ggghhhhhjhjhjkkhhhhjjiephhh3 # -dsdddddfssddd",
"sgfdddddgffgffw O. pffgfgfggfgggfhghgffhs-  .&# + @sdsssdssdssss",
"sasssssssassasy X. afddddsdsdsddadasasaads5.    O  sssdssssssdsd",
"saaaaassdsssssq @  aaaaaaaasaaaaaaapafsssssr@  X&  dsdsssaaaaass",
"aaapaasaaaaaaa8 @  %=120qi0011&%X#$<190ipw04<X  $  %%&&%&1<1900u",
"                $                               o               ",
"                     .XX                                        ",
"$  ssa888;---;O             38i     o-;----------=<87ysssaaass< ",
":  mmmmmmmmmmmnnmmmmmzs0  =hmmm   8vccnvbvvvvbvbbbbvbbbbbnnnnb1 ",
"<  nbnbbbbbnnnbbnbbbbbz@o8vvvbv+  =bnbbbbbbvvvvccvcvvvccvvccvv; ",
"< oxccccvvvcvxxcxcxxcc<-jcxcxcc@   vccccvcccvvvvvvcbbvbvvccccc= ",
"; +zzxxxzzzzzxxzzxxccyucccvvcccO  Ollxzzzzzzxxxcccxxzzxxxxcccc, ",
"= @llzllzzxllzzlzzzxczxxxzzzzzz   -lzllzzzzzzlklkklklkkkkllllz7 ",
"# $kklkkkjjjkkkkkkkkkkjkkkkkklk   <lllkllklllllkkjjkkkkkkklljlr ",
"o *hhjjhhghggffgggghhjjjjkkkkjk   4kkkkkkkkjjkkjjjjjkhhjjjjjjjs ",
"O &gggggghgfffffdfffdffdffgfggf   ;hhghhhhgghffghfggggghhhhkhhu ",
"O *dddddffdffdfdfffffdffffffffi X #fdddfdfdddfdfdfdffdffffdgggw ",
"O :dfddddfdsddddddfdddfdggffffi X .sssssssssddsddddddfffffffdf9 ",
"+ =ssaaaaaaassasasssdsdssfffssy oo ysdsaasdddsdddsdddfffsdsssd6 ",
"+ %sssdssssssssssdsddsssaaaassu .  sssssdddssadaaaadaappsapaad9 ",
"O .&&&%;1113qqqisay0q02<<1:&&%%    ,10qaasafsfdsaddaqq4111121&# ",
"X                                       +##@O+XX#X              ",
"                                                                ",
"    @---->88882 #O yddddd995-;$          $=<808 @ +dssd8898---o ",
"nbnbbvbvbbbvbbs +O jbvvbbvbvvbbbbbbbbbbbbnbbbbg X ;nnnnnmnnnnnnn",
"bbnbbnbbvvcvcch oO jbbbbvvccvvvvvvbvvbvbbvbbnvc   5bvbvvvvvvcvbb",
"vcvvvvbvvbvvvvh XX hccxcvcccvvvvvvvvbvbvvbvbbvk   wvbvbvvbvvvvvv",
"cvcxccxcccczxxf X .zllklllzzzlzzzzxxxxxxxzzzzxy X wxxxxxcxccccxv",
"zzzzzllzzzzzzlf X *zzzzzllklkllllllkklllllzlkl7 O qzzzzlzlzzzzzz",
"llllllllzlzlzld . 3kkklkkkklkkkkkkkkjjklllllkj, + 9kjkklllllzzzz",
"jjjjjjkjlzjkjja . 0kkklzlllkkkkjkjjkkjkjjjkzll, + 0jhjkllkkkkjjj",
"fffffffffgffgfq o 8hhhkkklkkllllljjghghghhkllk< + 7ggfdfffddfdff",
"hhhggghgggdddd3 + 6hhhhhhhjkjjhjhhhhgffgffgggg3 + 3gffggfggggggh",
"fdfffffffgggff; % 2ddsdddddsdfddggfdsfggdfffgd2 + 2dddsddsdsssfd",
"fddddffdddddsd$ - ,sddsssdsssssssssssdssddssss< @ 3sddsdddddffff",
"dssdsadasaaafd> = :ddsssssssassddssdsassssaaas: O 8dddsdsdfddddd",
"q0iaaaaaaasaas5 % O<<1<<48121<*%%&1<17qq0q0511O o esaaaaasasaqq0"
};
