/* XPM */
static char *_7e20bc819d44ba7f5563a3ab9ff310aTsfAxlck9r4TJzSh[] = {
/* columns rows colors chars-per-pixel */
"64 64 2 1 ",
"  c red",
". c white",
/* pixels */
"................................................................",
"................................................................",
"................................................................",
"................................................................",
"................................................................",
"................................................................",
"................................................................",
"................................................................",
"....  ..........................................................",
"....   .........................................................",
".... . .........................................................",
"...  .. ....   .....    ... .. .....   .... ..  ...  .. ........",
"... ... ...  .. ...  ...... ..  ...  .  ... ..   .   .. ........",
"... ... ... ... .. ........  .. ...  ..  .. .. .   . .. ........",
"... ..  ... ... .. ........  .. .... ... .. .. ..... .. ........",
"...    ...  ..  ..     ....  ..  ... ... .. .. ..... .. ........",
"... ...... .   ... ....... . ... ... ...  . .. ..... .. ........",
"... ...... .  .... ....... .. .. ... ...  . .. ..... .. ........",
"... ...... ... ... ....... .. .. ... ... .. .. ..... .. ........",
"... ...... ....  . ....... .. . .... ... .. .. ..... .. ........",
"... ...... ..... .. ..  .. ...  .... ..  .. .. ..... .. ........",
"... ....... .... ..    ... ...  ....    ... .. ..... .. ........",
"................................................................",
"................................................................",
"................................................................",
"................................................................",
"................................................................",
"................................................................",
"................................................................",
"................................................................",
"................................................................",
"................................................................",
"................................................................",
"................................................................",
"................................................................",
".....  .........................................................",
".....   ........................................................",
"..... . ........................................................",
"....  .. ....   .....    ... .. .....   .... ..  ...  .. .......",
".... ... ...  .. ...  ...... ..  ...  .  ... ..   .   .. .......",
".... ... ... ... .. ........  .. ...  ..  .. .. .   . .. .......",
".... ..  ... ... .. ........  .. .... ... .. .. ..... .. .......",
"....    ...  ..  ..     ....  ..  ... ... .. .. ..... .. .......",
".... ...... .   ... ....... . ... ... ...  . .. ..... .. .......",
".... ...... .  .... ....... .. .. ... ...  . .. ..... .. .......",
".... ...... ... ... ....... .. .. ... ... .. .. ..... .. .......",
".... ...... ....  . ....... .. . .... ... .. .. ..... .. .......",
".... ...... ..... .. ..  .. ...  .... ..  .. .. ..... .. .......",
".... ....... .... ..    ... ...  ....    ... .. ..... .. .......",
"................................................................",
"................................................................",
"................................................................",
"................................................................",
"................................................................",
"................................................................",
"................................................................",
"................................................................",
"................................................................",
"................................................................",
"................................................................",
"................................................................",
"................................................................",
"................................................................",
"................................................................"
};
