/* XPM */
static char *_9286b516acd456587c638060320a367AAgg8r3FcjKEak5d[] = {
/* columns rows colors chars-per-pixel */
"64 64 3 1 ",
"  c black",
". c #944D15",
"X c white",
/* pixels */
"XXXXXXXXXXXXXXXXXXXXXXXXXXXXXXXXXXXXXXXXXXXXXXXXXXXXXXXXXXXXXXXX",
"XXXXXXXXXXXXXXXXXXXXXXXXXXXXXXXXXXXXXXXXXXXXXXXXXXXXXXXXXXXXXXXX",
"XXXXXXXXXXXXXXXXXXXXXXXXXXXXXXXXXXXXXXXXXXXXXXXXXXXXXXXXXXXXXXXX",
"XXXXXXXXXXXXXXXXXXXXXXXXXXXXXXXXXXXXXXXXXXXXXX XXXXXXXXXXXXXXXXX",
"XXXXXXXXXXXXXXXXXXXXXXXXXXXXXXXXXXXXXXXXXXXXXX XXXXXXXXXXXXXXXXX",
"XXXXXXXXXXXXXXXXXXXXXXXXXXXXXXXXXXXXXXXXXXXXXX XXXXXXXXXXXXXXXXX",
"XXXXXXXXXXXXXXXXX XXXXXXXXXXXXXXXXXXXXXXXXXXX  XXXXXXXXXXXXXXXXX",
"XXXXXXXXXXXXXXXXX XXXXXXXXXXXXXXXXXXXXXXXXXX  XXXXXXXXXXXXXXXXXX",
"XXXXXXXXXXXXXXXXX XXXXXXXXXXXXXXXXXXXXXXXXX  XXXXXXXXXXXXXXXXXXX",
"XXXXXXXXXXXXXXXX XXXXXXXXXXXXXXXXXXXXXXXXX  XXXXXXXXXXXXXXXXXXXX",
"XXXXXXXXXXXXXXXX XXXXXXXXXXXXXXXXXXXXXXXX XXXXXXXXXXXXXXXXX XXXX",
"XXXXXXXXXXXXXXXX XXXXXXXXXXXXXXXXXXXXXXX XXXXXXXXXXXXXXXXXX XXXX",
"XXXXXXXXXXXXXXXX XXXXXXXXXXXXXXXXXXXXXXX XXXXXXXXXXXXXXXXX  XXXX",
"XXXXXXXXXXXXXXXX XXXXXXXXXXXXXXXXXXXXXX XXXXXXXXXXXXXXXXXX XXXXX",
"XXXXXXXXXXXXXXXX XXXXXXXXXXXXXXXXXXXXX  XXXXXXXXXXXXXXXX  XXXXXX",
"XXXXXXXXXXXXXXXX XXXXXXXXXXXXXXXXXXXXXXXXXXXXXXXXXXXXXXX XXXXXXX",
"XXXXXXXXX  XXXXX XXXXXXXXXXXXXXXXXXXXX.....XXXXXXXXXXXX XXXXXXXX",
"XXXXXXXXX XXXXXX XXXXXXXXXXXXXXXXXX...XXXX.XXXXXXXXXXX  XXXXXXXX",
"XXXXXXXXX XXXXXXX XXXXXXXXXXXXXX...XXXXXX..XXXXXXXXXXX XXXXXXXXX",
"XXXXXXXXX XXXXXXX XXXXXXXXXXXX..XXXXXXXXX.XXXXXXXXXXX  XXXXXXXXX",
"XXXXXXXXXX XXXXXX XXXXXXXXXXX..XXXXXXXXXX.XXXXXXXXXXX XXXXXXXXXX",
"XXXXXXXXXX XXXXXXX XXXXXXXXX.XXXXXXXXXXX.XXXXXXXXXXX XXXXXXXXXXX",
"XXXXXXXXXX  XXXXXXX XXXXXXX..XXXXXXXXXXX.XXXXXXXXXXX XXXXXXXXXXX",
"XXXXXXXXXXX XXXXXXX XXXXXX.XXXXXXXXXXXXX.XXXXXXXXXXX XXXXXXXXXXX",
"XXXXXXXXXXX  XXXXXX XXXXXX.XXXXXXXXXXXXX.XX XX XXXXX XXXXXXXXXXX",
"XXXXXXXXXXXX XXXXXX XXXXX.XXXXXXXXXXXXXX.XXX  XXXXXX XXXXXXXXXXX",
"XXXXXXXXXXXX XXXXXX XXXXX.XXXXXXXXXXXXXX.XXX  XXXXXX XXXXXXXXXXX",
"XXXXXXXXXXXX XXXXXX XXXX.XXXXXXXXXXXXXXX.XXXXXXXXXXX XXXXXXXXXXX",
"XXXXXXXXXXXX XXXXXX XXXX.XXXXXXXXXXXXXXX.XXXXXXXXXXX XXXXXXXXXXX",
"XXXXXXXXXXXX XXXXXXXXXXX.XXXXXXXXXXXXXXX.XXXXXXXXXXXX XXXXXXXXXX",
"XXXXXXXXXXXX XXXXXXXXXXX.XXXXXXXXXXXXXXX.XXXXXXXXXXXX XXXXXXXXXX",
"XXXXXXXXXXX XXXXXXXXXXXX.XXXXXXXXXXXX........XXXXXXXX XXXXXXXXXX",
"XXXXXXXXXXX XXXXXXXX............XXXXXXXXXXXXX...XXXXX XXXXXXXXXX",
"XXXXXXXXXXX XXXXXX..XXXXXXXXXXXXXXXXXXXXXXXXXXXX.XXXX XXXXXXXXXX",
"XXXXXXXXXXX XXXXX.XXXXXXXXXXXXXXXXXXXXXXXXXXXXXXX.XXX XXXXXXXXXX",
"XXXXXXXXXXX XXXX..XXXXXXXXXXXXXXXXXXXXXXXXXXXXXXX.XXX XXXXXXXXXX",
"XXXXXXXXXXX XXXX.XXXXXXXXXXXXXXXXXXXXXXXXXXXXXXX..XXX XXXXXXXXXX",
"XXXXXXXXXXX XXXX.XXXXXXXXXXXXXXXXXXXXXXXXXXXXXX..XXXX XXXXXXXXXX",
"XXXXXXXXXXX  XXX.XXXXXXXXXXXXXXXXXXXXXXXXXXXX...XXXXX XXXXXXXXXX",
"XXXXXXXXXXXX XXXX.XXXXXXXXXXXXXXXXXXXXXXXXX..XXXXXXXX XXXXXXXXXX",
"XXXXXXXXXXXX XXXX..XXXXXXXXXXXXXXXXXXXX.....XXXXXXXXX XXXXXXXXXX",
"XXXXXXXXXXXXX XXXX...X.XXXXXXXXXXXXXXXXXXXXX....XXXXXXXXXXXXXXXX",
"XXXXXXXXXXXXX  XXXXX...XXXXXXXXXXXXXXXXXXXXXXXXX...XXXXXXXXXXXXX",
"XXXXXXXXXXXXXXXXX...XXXXXXXXXXXXXXXXXXXXXXXXXXXXXX..XXXXXXXXXXXX",
"XXXXXXXXXXXXXXXX..XXXXXXXXXXXXXXXXXXXXXXXXXXXXXXXXXX..XXXXXXXXXX",
"XXXXXXXXXXXXXXX..XXXXXXXXXXXXXXXXXXXXXXXXXXXXXXXXXXXX..XXXXXXXXX",
"XXXXXXXXXXXXXXX.XXXXXXXXXXXXXXXXXXXXXXXXXXXXXXXXXXXXXX.XXXXXXXXX",
"XXXXXXXXXXXXXX.XXXXXXXXXXXXXXXXXXXXXXXXXXXXXXXXXXXXXXX.XXXXXXXXX",
"XXXXXXXXXXXXXX.XXXXXXXXXXXXXXXXXXXXXXXXXXXXXXXXXXXXXX.XXXXXXXXXX",
"XXXXXXXXXXXXXX.XXXXXXXXXXXXXXXXXXXXXXXXXXXXXXXXXXXXXX.XXXXXXXXXX",
"XXXXXXXXXXXXXX.XXXXXXXXXXXXXXXXXXXXXXXXXXXXXXXXXXXXXX.XXXXXXXXXX",
"XXXXXXXXXXXXXXX.XXXXXXXXXXXXXXXXXXXXXXXXXXXXXXXXXXXX.XXXXXXXXXXX",
"XXXXXXXXXXXXXXXX..XXXXXXXXXXXXXXXXXXXXXXXXXXXXXXXXXX.XXXXXXXXXXX",
"XXXXXXXXXXXXXXXXXX...XXXXXXXXXXXXXXXXXXXXXXXXXXXXXX..XXXXXXXXXXX",
"XXXXXXXXXXXXXXXXXXXXX.....XXXXXXXXXXXXXXXXXXXXXXX..XXXXXXXXXXXXX",
"XXXXXXXXXXXXXXXXXXXXXXXXXX.......XXXXXXXXXXXXXXX..XXXXXXXXXXXXXX",
"XXXXXXXXXXXXXXXXXXXXXXXXXXXXXXXXX...............XXXXXXXXXXXXXXXX",
"XXXXXXXXXXXXXXXXXXXXXXXXXXXXXXXXXXXXXXXXXXXXXXXXXXXXXXXXXXXXXXXX",
"XXXXXXXXXXXXXXXXXXXXXXXXXXXXXXXXXXXXXXXXXXXXXXXXXXXXXXXXXXXXXXXX",
"XXXXXXXXXXXXXXXXXXXXXXXXXXXXXXXXXXXXXXXXXXXXXXXXXXXXXXXXXXXXXXXX",
"XXXXXXXXXXXXXXXXXXXXXXXXXXXXXXXXXXXXXXXXXXXXXXXXXXXXXXXXXXXXXXXX",
"XXXXXXXXXXXXXXXXXXXXXXXXXXXXXXXXXXXXXXXXXXXXXXXXXXXXXXXXXXXXXXXX",
"XXXXXXXXXXXXXXXXXXXXXXXXXXXXXXXXXXXXXXXXXXXXXXXXXXXXXXXXXXXXXXXX",
"XXXXXXXXXXXXXXXXXXXXXXXXXXXXXXXXXXXXXXXXXXXXXXXXXXXXXXXXXXXXXXXX"
};
