/* XPM */
static char *_fe822fe3d7c457b8f990ccdc8d756d8rNjyKMCW1Lwl7b2C[] = {
/* columns rows colors chars-per-pixel */
"64 64 3 1 ",
"  c black",
". c #944D15",
"X c white",
/* pixels */
"XXXXXXXXXXXXXXXXXXXXXXXXXXXXXXXXXXXXXXXXXXXXXXXXXXXXXXXXXXXXXXXX",
"XXXXXXXXXXXXXXXXXXXXXXXXXXXXXXXXXXXX XXXXXXXXXXXXXXXXXXXXXXXXXXX",
"XXXXXXXXXXXXXXXXXXXXXXXXXXXXXXXXXXXX XXXXXXXXXXXXXXXXXXXXXXXXXXX",
"XXXXXXXXXXXXXXXXXXXXXXXXXXXXXXXXXXXX XXXXXXXXXXXXXXXXXXXXXXXXXXX",
"XXXXXXXXXXXXXXXXXXXXXX XXXXXXXXXXXXX  XXXXXXXXXXXXXXXXXXXXXXXXXX",
"XXXXXXXXXXXXXXXXXXXXXX XXXXXXXXXXXXXX XXXXXXXXXXXXXXXXXXXXXXXXXX",
"XXXXXXXXXXXXXXXXXXXXXX XXXXXXXXXXXXXX  XXXXXXXXXXXXXXXXXXXXXXXXX",
"XXXXXXXXXXXXXXXXXXXXXX XXXXXXXXXXXXXXX XXXXXXXXXXX XXXXXXXXXXXXX",
"XXXXXXXXXXXXXXXXXXXXXX XXXXXXXXXXXXXXX  XXXXXXXXXX XXXXXXXXXXXXX",
"XXXXXXXXXXXXXXXXXXXXXX XXXXXXXXXXXXXXXX  XXXXXXXX  XXXXXXXXXXXXX",
"XXXXXXXXXXXXXXXXXXXXXX XXXXX XX XXXXXXX  XXXXXXXX XXXXXXXXXXXXXX",
"XXXXXXXXXXXXXXXXXXXXXX XXXXXX  XXXXXXXX XXXXXXXXXX XXXXXXXXXXXXX",
"XXXXXXXXXXXXXXXXXXXXX XXXXXXX  XXXXXXXX XXXXXXXXXX XXXXXXXXXXXXX",
"XXXXXXXXXXXXXXXXXXXXX XXXXXXXXXXXXXXXX XXXXXXXXXXX XXXXXXXXXXXXX",
"XXXXXXXXXXXXXXXXXXXXX XXXXXXXXXXXXXXX XXXXXXXXXXXX XXXXXXXXXXXXX",
"XXXXXXXXXXXXXXXXXXXX  XXXXXXXXXXXXXXXXXXXXXXXXXXXX XXXXXXXXXXXXX",
"XXXXX XXXXXXXXXXXXXX XXXXXXXXXXXXXXXXX.....XXXXXXX  XXXXXXXXXXXX",
"XXXXXX XXXXXXXXXXXXX XXXXXXXXXXXXXX...XXXX.XXXXXXXX XXXXXXXXXXXX",
"XXXXXX XXXXXXXXXXXX XXXXXXXXXXXX...XXXXXX..XXXXXXXX XXXXXXXXXXXX",
"XXXXXX XXXXXXXXXXXX XXXXXXXXXX..XXXXXXXXX.XXXXXXXXX XXXXXXXXXXXX",
"XXXXXX  XXXXXXXXXXX XXXXXXXXX..XXXXXXXXXX.XXXXXXXXX XXXXXXXXXXXX",
"XXXXXXX XXXXXXXXXXX  XXXXXXX.XXXXXXXXXXX.XXXXXXXXXX XXXXXXXXXXXX",
"XXXXXXX XXXXXXXXXXXX XXXXXX..XXXXXXXXXXX.XXXXXXXXXX XXXXXXXXXXXX",
"XXXXXXXX XXXXXXXXXXX XXXXX.XXXXXXXXXXXXX.XXXXXXXXXX XXXXXXXXXXXX",
"XXXXXXXX  XXXXXXXXXX XXXXX.XXXXXXXXXXXXX.XXXXXXXXXX XXXXXXXXXXXX",
"XXXXXXXXX XXXXXXXXXX XXXX.XXXXXXXXXXXXXX.XXXXXXXXXX XXXXXXXXXXXX",
"XXXXXXXXX XXXXXXXXXX XXXX.XXXXXXXXXXXXXX.XXXXXXXXXX XXXXXXXXXXXX",
"XXXXXXXXX  XXXXXXXXX XXX.XXXXXXXXXXXXXXX.XXXXXXXXXX XXXXXXXXXXXX",
"XXXXXXXXXX XXXXXXXXX XXX.XXXXXXXXXXXXXXX.XXXXXXXXXX XXXXXXXXXXXX",
"XXXXXXXXXX XXXXXXXXXXXXX.XXXXXXXXXXXXXXX.XXXXXXXXXXX XXXXXXXXXXX",
"XXXXXXXXXX XXXXXXXXXXXXX.XXXXXXXXXXXXXXX.XXXXXXXXXXX XXXXXXXXXXX",
"XXXXXXXXXX XXXXXXXXXXXXX.XXXXXXXXXXXX........XXXXXXX XXXXXXXXXXX",
"XXXXXXXXXX XXXXXXXXX............XXXXXXXXXXXXX...XXXX XXXXXXXXXXX",
"XXXXXXXXXX XXXXXXX..XXXXXXXXXXXXXXXXXXXXXXXXXXXX.XXX XXXXXXXXXXX",
"XXXXXXXXXX XXXXXX.XXXXXXXXXXXXXXXXXXXXXXXXXXXXXXX.XX XXXXXXXXXXX",
"XXXXXXXXXX XXXXX..XXXXXXXXXXXXXXXXXXXXXXXXXXXXXXX.XX XXXXXXXXXXX",
"XXXXXXXXXX XXXXX.XXXXXXXXXXXXXXXXXXXXXXXXXXXXXXX..XX XXXXXXXXXXX",
"XXXXXXXXXX XXXXX.XXXXXXXXXXXXXXXXXXXXXXXXXXXXXX..XXX XXXXXXXXXXX",
"XXXXXXXXXX  XXXX.XXXXXXXXXXXXXXXXXXXXXXXXXXXX...XXXX XXXXXXXXXXX",
"XXXXXXXXXXX XXXXX.XXXXXXXXXXXXXXXXXXXXXXXXX..XXXXXXX XXXXXXXXXXX",
"XXXXXXXXXXX XXXXX..XXXXXXXXXXXXXXXXXXXX.....XXXXXXXX XXXXXXXXXXX",
"XXXXXXXXXXX  XXXXX...X.XXXXXXXXXXXXXXXXXXXXX....XXXXXXXXXXXXXXXX",
"XXXXXXXXXXXX XXXXXXX...XXXXXXXXXXXXXXXXXXXXXXXXX...XXXXXXXXXXXXX",
"XXXXXXXXXXXXXXXXX...XXXXXXXXXXXXXXXXXXXXXXXXXXXXXX..XXXXXXXXXXXX",
"XXXXXXXXXXXXXXXX..XXXXXXXXXXXXXXXXXXXXXXXXXXXXXXXXXX..XXXXXXXXXX",
"XXXXXXXXXXXXXXX..XXXXXXXXXXXXXXXXXXXXXXXXXXXXXXXXXXXX..XXXXXXXXX",
"XXXXXXXXXXXXXXX.XXXXXXXXXXXXXXXXXXXXXXXXXXXXXXXXXXXXXX.XXXXXXXXX",
"XXXXXXXXXXXXXX.XXXXXXXXXXXXXXXXXXXXXXXXXXXXXXXXXXXXXXX.XXXXXXXXX",
"XXXXXXXXXXXXXX.XXXXXXXXXXXXXXXXXXXXXXXXXXXXXXXXXXXXXX.XXXXXXXXXX",
"XXXXXXXXXXXXXX.XXXXXXXXXXXXXXXXXXXXXXXXXXXXXXXXXXXXXX.XXXXXXXXXX",
"XXXXXXXXXXXXXX.XXXXXXXXXXXXXXXXXXXXXXXXXXXXXXXXXXXXXX.XXXXXXXXXX",
"XXXXXXXXXXXXXXX.XXXXXXXXXXXXXXXXXXXXXXXXXXXXXXXXXXXX.XXXXXXXXXXX",
"XXXXXXXXXXXXXXXX..XXXXXXXXXXXXXXXXXXXXXXXXXXXXXXXXXX.XXXXXXXXXXX",
"XXXXXXXXXXXXXXXXXX...XXXXXXXXXXXXXXXXXXXXXXXXXXXXXX..XXXXXXXXXXX",
"XXXXXXXXXXXXXXXXXXXXX.....XXXXXXXXXXXXXXXXXXXXXXX..XXXXXXXXXXXXX",
"XXXXXXXXXXXXXXXXXXXXXXXXXX.......XXXXXXXXXXXXXXX..XXXXXXXXXXXXXX",
"XXXXXXXXXXXXXXXXXXXXXXXXXXXXXXXXX...............XXXXXXXXXXXXXXXX",
"XXXXXXXXXXXXXXXXXXXXXXXXXXXXXXXXXXXXXXXXXXXXXXXXXXXXXXXXXXXXXXXX",
"XXXXXXXXXXXXXXXXXXXXXXXXXXXXXXXXXXXXXXXXXXXXXXXXXXXXXXXXXXXXXXXX",
"XXXXXXXXXXXXXXXXXXXXXXXXXXXXXXXXXXXXXXXXXXXXXXXXXXXXXXXXXXXXXXXX",
"XXXXXXXXXXXXXXXXXXXXXXXXXXXXXXXXXXXXXXXXXXXXXXXXXXXXXXXXXXXXXXXX",
"XXXXXXXXXXXXXXXXXXXXXXXXXXXXXXXXXXXXXXXXXXXXXXXXXXXXXXXXXXXXXXXX",
"XXXXXXXXXXXXXXXXXXXXXXXXXXXXXXXXXXXXXXXXXXXXXXXXXXXXXXXXXXXXXXXX",
"XXXXXXXXXXXXXXXXXXXXXXXXXXXXXXXXXXXXXXXXXXXXXXXXXXXXXXXXXXXXXXXX"
};
