/* XPM */
static char *cdfa8973725b49f7c9d0106a05eba8524kCT5rUgnHRHckGe[] = {
/* columns rows colors chars-per-pixel */
"64 64 2 1 ",
"  c black",
". c white",
/* pixels */
"................................................................",
"................................................................",
"................................................................",
"................................................................",
"................................................................",
"................................................................",
"................................................................",
".......................  .......................................",
"...................... .. ......................................",
".................. .. ... ......................................",
".................. . .... .............     ....................",
"................    ..... ...........  .....    ................",
"............... . ....... .......... ...........   .............",
"...............  ........ .......... ..............  ...........",
"............... ......... ......... ................. ..........",
".............   .......... ........ .................. .........",
"............ .. .......... ........ ................... ........",
"........... ... .......... ........ ....  .............. .......",
"....... .. ..... ......... ........ ...  ................ ......",
".......    ...... ........ ........ .  . ................ ......",
"........      ... ........ ........  ... ................. .....",
"........ .. ..  .. ...... ......... .... ................. .....",
"....... ....  ..  . ..... ........ . ... .................. ....",
"...... ....... ...    ... ....... .. ... .................. ....",
"..... .........  ...   .. ...... ... ... ................... ...",
".... ............  ...    ..... .... ... ................... ...",
"... ............... ....  .... ...... .. ................... ...",
".. .................  ...   . ....... .. ................... ...",
". .................... ..     ....... . ................... ....",
" ...................... . .. .   .... . ................... ....",
"....................... . ..  ...   ..  ................... ....",
"........................  . .. .....    ..................  ....",
"  ....................... . ... .......        ........   ......",
"..    .................. .  ... ....... .......        .........",
"......  ................ ..  ... ......  .......................",
"........  .............. .. . ... .....  .......................",
"..........   ........... ... . .. .... . .......................",
".............   ........ .... . .. ... .. ......................",
"................   ..... ..... . . ... .. ......................",
"...................  .. ...... ..   .. ... .....................",
".....................   ....... ... .. ... .....................",
".......................  ....... ..  . .... ....................",
"....................... .  ...... . .  .... ....................",
"....................... ... ......  ..  .... ...................",
"....................... ....  ....  ..       ...................",
"....................... ...... .. . ..... ..   .................",
"....................... ...     .. .......  ..       ...........",
"....................... .......... ......... . ......  .........",
"........................ ........ ........... . ................",
"........................ ........ ............  ................",
".........................  ..... ..............  ...............",
"........................... .... ...............  ..............",
"............................  . .................  .............",
"..............................  ..................  ............",
".............................. .  ................ . ...........",
".............................. ...   .............. . ..........",
"............................. .......   ............ . .........",
"............................. ..........     ....... .. ........",
"............................ ................           ........",
"............................ ........................ ..........",
"........................... .......................... .........",
"........................... .......................... .........",
"........................... ........................... ........",
".......................... ............................. ......."
};
