/* XPM */
static char *_972b5a764c748ceac3e11e9a9b341af7gtB9ooK5bH8NgPl[] = {
/* columns rows colors chars-per-pixel */
"64 64 2 1 ",
"  c black",
". c white",
/* pixels */
"................................................................",
"................................................................",
"................................................................",
"................................................................",
"................................................................",
"................................................................",
"................................................................",
"................................................................",
"................................................................",
"................................................................",
".....................................        ...................",
".................................... ........ ..................",
"............ ....................... .........  ................",
"............  .... ................. ........... ...............",
"............ . ... ......  .......... .......... ...............",
"............ . .... .... .. ......... .......... ...............",
"............ . .... .... ... ......... ........ ................",
"........... ... ... .... .... ........ ....... .................",
"........... ... .... ... .... ........ ..     ..................",
"........... .... ... ... ..... ........ ........................",
"........... ..... .. .... .... ........  .......................",
"........... ...... . .... .... .........  ......................",
"........... ...... . .... .... .........  ......................",
"........... ...... . ...  .... ..........  .....................",
"........... ......   ...  .... ........... .....................",
"........... ....... .....     ............  ....................",
".......... ...............................  ....................",
".......... ................................ ....................",
".......... ................................ ....................",
"......... .................................. ...................",
"............................................ ...................",
"................................................................",
"................................................................",
"................................................................",
"................................................................",
"................................................................",
"................................................................",
"............................ ...................................",
"............................  ..................................",
".............................. .................................",
"............................... ................................",
"................................ ...............................",
".......................... ...... ..............................",
".................................. .............................",
".................................. .............................",
"................................... ............................",
".................................... ...........................",
".................................... ...........................",
"........................... ........ ...........................",
".................................... ...........................",
".................................... ...........................",
".................................... ...........................",
".................................... ...........................",
"................................... ............................",
"................................... ............................",
".................................. .............................",
".................................. .............................",
"................................. ..............................",
"................................ ...............................",
"................................................................",
"................................................................",
"................................................................",
"................................................................",
"................................................................"
};
