/* XPM */
static char *d6017234dc324f12cf40f760f16b8dcdKmPK89Cmpxn11pq0[] = {
/* columns rows colors chars-per-pixel */
"20 20 2 1 ",
"  c #450045",
". c #4A474A",
/* pixels */
"                    ",
" .................. ",
" .................. ",
" .................. ",
" .................. ",
" .................. ",
" .................. ",
" .................. ",
" .................. ",
" .................. ",
" .................. ",
" .................. ",
" .................. ",
" .................. ",
" .................. ",
" .................. ",
" .................. ",
" .................. ",
" .................. ",
"                    "
};
